<svg width="807" height="716" viewBox="0 0 807 716" fill="none" xmlns="http://www.w3.org/2000/svg">
<circle cx="619.001" cy="333" r="38.5" stroke="#CDFFE6"/>
<circle cx="619.001" cy="333" r="126.5" stroke="#CDFFE6"/>
<circle cx="619.001" cy="333" r="236.5" stroke="#CDFFE6"/>
<mask id="path-4-inside-1_3_662" fill="white">
<path d="M491.354 133.312C484.256 137.85 477.404 142.763 470.828 148.03L472.346 149.925C478.854 144.711 485.636 139.849 492.662 135.358L491.354 133.312Z"/>
</mask>
<path d="M491.354 133.312C484.256 137.85 477.404 142.763 470.828 148.03L472.346 149.925C478.854 144.711 485.636 139.849 492.662 135.358L491.354 133.312Z" stroke="#27D07D" stroke-width="2" mask="url(#path-4-inside-1_3_662)"/>
<mask id="path-5-inside-2_3_662" fill="white">
<path d="M389.519 273.781C387.001 283.539 385.108 293.447 383.851 303.446L386.953 303.836C388.193 293.969 390.062 284.191 392.546 274.562L389.519 273.781Z"/>
</mask>
<path d="M389.519 273.781C387.001 283.539 385.108 293.447 383.851 303.446L386.953 303.836C388.193 293.969 390.062 284.191 392.546 274.562L389.519 273.781Z" stroke="#27D07D" stroke-width="2" mask="url(#path-5-inside-2_3_662)"/>
<circle cx="619.001" cy="333" r="331.5" stroke="#CDFFE6"/>
<mask id="path-7-inside-3_3_662" fill="white">
<path d="M289.049 288.051C291.876 267.294 296.656 246.851 303.325 226.992L317.663 231.807C311.297 250.764 306.735 270.279 304.035 290.093L289.049 288.051Z"/>
</mask>
<path d="M289.049 288.051C291.876 267.294 296.656 246.851 303.325 226.992L317.663 231.807C311.297 250.764 306.735 270.279 304.035 290.093L289.049 288.051Z" stroke="#27D07D" stroke-width="4" mask="url(#path-7-inside-3_3_662)"/>
<path d="M697.172 687.653C696.998 687.485 696.776 687.273 696.51 687.016C695.769 686.302 694.682 685.248 693.295 683.89C690.522 681.175 686.551 677.243 681.764 672.381C672.188 662.655 659.346 649.205 646.279 634.308C633.212 619.409 619.926 603.071 609.458 587.568C598.979 572.048 591.367 557.428 589.577 545.951L589.577 545.951L589.575 545.94C587.584 534.856 587.828 523.486 590.294 512.499C592.759 501.511 597.396 491.127 603.932 481.956C610.467 472.786 618.77 465.014 628.352 459.098C637.934 453.182 648.601 449.241 659.728 447.507C670.855 445.772 682.216 446.279 693.144 448.998C704.072 451.716 714.346 456.592 723.363 463.338C732.38 470.083 739.957 478.564 745.65 488.28C751.343 497.996 755.037 508.752 756.514 519.915L756.532 520.053L756.544 520.068C758.291 531.537 755.493 547.725 750.255 565.629C745.003 583.581 737.321 603.186 729.409 621.354C721.498 639.52 713.36 656.239 707.2 668.417C704.12 674.506 701.534 679.459 699.719 682.889C698.811 684.605 698.096 685.939 697.609 686.845C697.433 687.17 697.287 687.44 697.172 687.653Z" fill="#27D07D" stroke="#CDFFE6"/>
<path d="M660.385 449.286C660.385 449.286 717.405 560.806 697.757 688.769" stroke="#CDFFE6" stroke-miterlimit="10"/>
<path d="M762.33 604.157L762.334 604.16L763.18 604.783C763.181 604.783 763.181 604.784 763.182 604.784C770.336 610.14 775.277 617.934 777.068 626.69C778.859 635.447 777.375 644.556 772.897 652.291L772.897 652.292C761.368 672.297 742.651 681.319 726.772 685.338C718.834 687.347 711.617 688.103 706.385 688.356C703.77 688.482 701.651 688.483 700.189 688.452C699.458 688.437 698.89 688.414 698.507 688.394C698.475 688.393 698.444 688.391 698.414 688.39C699.998 657.184 704.8 636.328 711.091 622.594C717.411 608.797 725.22 602.214 732.766 599.509C740.324 596.8 747.708 597.951 753.229 599.8C755.986 600.723 758.269 601.817 759.861 602.68C760.657 603.111 761.279 603.484 761.701 603.748C761.912 603.88 762.073 603.985 762.181 604.056C762.234 604.092 762.274 604.119 762.301 604.137L762.33 604.157Z" fill="#27D07D" stroke="#CDFFE6"/>
<path d="M763.624 604.087C763.624 604.087 748.241 668.146 697.89 688.858" stroke="#CDFFE6" stroke-miterlimit="10"/>
<path d="M1.48047 760.233V631.648H84.46V760.233H1.48047Z" fill="white" stroke="#87E0B5"/>
<path d="M145.331 761.053V517.28H228.311V761.053H145.331Z" fill="white" stroke="#87E0B5"/>
<path d="M289.441 760.211V586.044H372.42V760.211H289.441Z" fill="white" stroke="#87E0B5"/>
<path d="M433.421 760.233V478.064H516.401V760.233H433.421Z" fill="white" stroke="#87E0B5"/>
<path d="M660.881 376.771H576.901V760.711H660.881V376.771Z" fill="white"/>
<path d="M41.7722 551.961L188.148 419.98L332.128 544.752L473.713 393.584L617.693 333.584" stroke="white" stroke-width="2" stroke-miterlimit="10"/>
<path d="M58.0636 551.96C58.0636 560.958 50.7696 568.252 41.772 568.252C32.7745 568.252 25.4805 560.958 25.4805 551.96C25.4805 542.963 32.7745 535.669 41.772 535.669C50.7696 535.669 58.0636 542.963 58.0636 551.96Z" fill="white" stroke="#87E0B5"/>
<path d="M346.024 542.356C346.024 551.354 338.73 558.648 329.732 558.648C320.735 558.648 313.441 551.354 313.441 542.356C313.441 533.358 320.735 526.064 329.732 526.064C338.73 526.064 346.024 533.358 346.024 542.356Z" fill="white" stroke="#87E0B5"/>
<path d="M492.4 393.584C492.4 402.582 485.106 409.876 476.108 409.876C467.111 409.876 459.817 402.582 459.817 393.584C459.817 384.587 467.111 377.293 476.108 377.293C485.106 377.293 492.4 384.587 492.4 393.584Z" fill="white" stroke="#87E0B5"/>
<path d="M204.44 417.563C204.44 426.56 197.146 433.854 188.148 433.854C179.151 433.854 171.857 426.56 171.857 417.563C171.857 408.565 179.151 401.271 188.148 401.271C197.146 401.271 204.44 408.565 204.44 417.563Z" fill="white" stroke="#87E0B5"/>
<path d="M635.474 332.85C635.474 341.847 628.18 349.141 619.182 349.141C610.185 349.141 602.891 341.847 602.891 332.85C602.891 323.852 610.185 316.558 619.182 316.558C628.18 316.558 635.474 323.852 635.474 332.85Z" fill="white" stroke="#87E0B5"/>
</svg>
