<svg width="160" height="150" viewBox="0 0 160 150" fill="none" xmlns="http://www.w3.org/2000/svg">
<g filter="url(#filter0_d_3_692)">
<rect x="44.3359" y="36.5945" width="86" height="71.6667" rx="6" transform="rotate(-15 44.3359 36.5945)" fill="#3EDB8E"/>
</g>
<path d="M140.762 84.9519L68.0765 104.428C66.6995 104.797 65.2324 104.604 63.9978 103.891C62.7633 103.178 61.8624 102.004 61.4935 100.627L45.7271 41.7863C45.3581 40.4094 45.5513 38.9422 46.2641 37.7077C46.9768 36.4731 48.1508 35.5723 49.5278 35.2033L122.214 15.7272C123.591 15.3582 125.058 15.5514 126.292 16.2642C127.527 16.9769 128.428 18.1509 128.797 19.5279L144.563 78.3689C144.932 79.7458 144.739 81.213 144.026 82.4475C143.313 83.6821 142.139 84.5829 140.762 84.9519ZM50.4552 38.6646C49.9962 38.7875 49.6049 39.0878 49.3673 39.4993C49.1297 39.9109 49.0653 40.3999 49.1883 40.8589L64.9547 99.6999C65.0777 100.159 65.378 100.55 65.7895 100.788C66.201 101.025 66.6901 101.09 67.1491 100.967L139.835 81.4906C140.294 81.3677 140.685 81.0674 140.923 80.6559C141.16 80.2443 141.225 79.7553 141.102 79.2963L125.335 20.4553C125.212 19.9963 124.912 19.605 124.501 19.3674C124.089 19.1298 123.6 19.0654 123.141 19.1884L50.4552 38.6646Z" fill="white"/>
<path d="M134.519 75.4956L61.8329 94.9717C61.3739 95.0947 60.8848 95.0303 60.4733 94.7928C60.0618 94.5552 59.7615 94.1638 59.6385 93.7048C59.5155 93.2459 59.5799 92.7568 59.8175 92.3453C60.0551 91.9338 60.4464 91.6335 60.9054 91.5105L133.591 72.0344C134.05 71.9114 134.539 71.9758 134.951 72.2134C135.362 72.451 135.663 72.8423 135.786 73.3013C135.909 73.7603 135.844 74.2493 135.607 74.6608C135.369 75.0723 134.978 75.3726 134.519 75.4956Z" fill="white"/>
<path d="M88.9348 78.4355L82.0123 80.2903C81.5533 80.4133 81.0643 80.3489 80.6528 80.1113C80.2413 79.8738 79.941 79.4824 79.818 79.0234L76.1082 65.1785C75.9853 64.7195 76.0496 64.2305 76.2872 63.8189C76.5248 63.4074 76.9162 63.1071 77.3751 62.9842L84.2976 61.1293C84.7566 61.0063 85.2457 61.0707 85.6572 61.3083C86.0687 61.5459 86.369 61.9372 86.492 62.3962L90.2017 76.2411C90.3247 76.7001 90.2603 77.1892 90.0227 77.6007C89.7851 78.0122 89.3938 78.3125 88.9348 78.4355ZM82.8155 76.3654L86.2767 75.4379L83.4944 65.0542L80.0332 65.9817L82.8155 76.3654Z" fill="white"/>
<path d="M102.78 74.7257L95.8572 76.5806C95.3983 76.7036 94.9092 76.6392 94.4977 76.4016C94.0862 76.164 93.7859 75.7727 93.6629 75.3137L89.0257 58.0075C88.9027 57.5485 88.9671 57.0595 89.2047 56.648C89.4423 56.2364 89.8336 55.9362 90.2926 55.8132L97.2151 53.9583C97.6741 53.8353 98.1631 53.8997 98.5746 54.1373C98.9862 54.3749 99.2864 54.7662 99.4094 55.2252L104.047 72.5314C104.17 72.9904 104.105 73.4794 103.868 73.8909C103.63 74.3025 103.239 74.6027 102.78 74.7257ZM96.6604 72.6556L100.122 71.7282L96.4119 57.8833L92.9507 58.8107L96.6604 72.6556Z" fill="white"/>
<path d="M116.625 71.016L109.702 72.8708C109.243 72.9938 108.754 72.9295 108.343 72.6919C107.931 72.4543 107.631 72.0629 107.508 71.6039L101.943 50.8365C101.82 50.3776 101.885 49.8885 102.122 49.477C102.36 49.0655 102.751 48.7652 103.21 48.6422L110.133 46.7873C110.592 46.6644 111.081 46.7287 111.492 46.9663C111.904 47.2039 112.204 47.5953 112.327 48.0542L117.892 68.8216C118.015 69.2806 117.95 69.7697 117.713 70.1812C117.475 70.5927 117.084 70.893 116.625 71.016ZM110.505 68.9459L113.967 68.0185L109.329 50.7123L105.868 51.6397L110.505 68.9459Z" fill="white"/>
<path d="M75.8674 61.2241C76.2048 61.3374 76.5682 61.3476 76.9114 61.2535C77.3649 61.13 77.7517 60.8331 77.9884 60.427L82.6886 52.2861L94.0934 49.2302C94.5469 49.1066 94.9336 48.8098 95.1703 48.4037L99.8705 40.2627L103.625 39.2566L101.991 42.0871C101.812 42.3946 101.728 42.7484 101.751 43.1036C101.774 43.4587 101.902 43.7991 102.119 44.0812C102.336 44.3634 102.632 44.5745 102.969 44.6878C103.306 44.8011 103.67 44.8113 104.013 44.7172C104.468 44.5884 104.853 44.2851 105.085 43.8734L108.853 37.3479C108.985 37.1333 109.07 36.8924 109.103 36.6404C109.148 36.2926 109.09 35.9393 108.936 35.6241C108.782 35.309 108.539 35.0459 108.237 34.8676L101.654 31.0669C101.247 30.8721 100.782 30.838 100.351 30.9716C99.9195 31.1051 99.5547 31.3964 99.329 31.7872C99.1034 32.178 99.0336 32.6395 99.1334 33.0796C99.2333 33.5196 99.4956 33.9058 99.8678 34.1609L102.716 35.7906L98.2335 36.9916C97.78 37.1152 97.3932 37.412 97.1566 37.8181L92.4564 45.9591L81.0516 49.015C80.8235 49.0747 80.6094 49.1788 80.4216 49.3214C80.2338 49.4641 80.0761 49.6423 79.9573 49.8461L74.8897 58.6234C74.7105 58.9309 74.627 59.2847 74.6496 59.6399C74.6723 59.995 74.8003 60.3354 75.0172 60.6175C75.234 60.8997 75.53 61.1109 75.8674 61.2241Z" fill="white"/>
<defs>
<filter id="filter0_d_3_692" x="0.682861" y="0.683029" width="158.924" height="148.789" filterUnits="userSpaceOnUse" color-interpolation-filters="sRGB">
<feFlood flood-opacity="0" result="BackgroundImageFix"/>
<feColorMatrix in="SourceAlpha" type="matrix" values="0 0 0 0 0 0 0 0 0 0 0 0 0 0 0 0 0 0 127 0" result="hardAlpha"/>
<feOffset dx="-15" dy="15"/>
<feGaussianBlur stdDeviation="15"/>
<feColorMatrix type="matrix" values="0 0 0 0 0.149983 0 0 0 0 0.291684 0 0 0 0 0.164153 0 0 0 0.13 0"/>
<feBlend mode="normal" in2="BackgroundImageFix" result="effect1_dropShadow_3_692"/>
<feBlend mode="normal" in="SourceGraphic" in2="effect1_dropShadow_3_692" result="shape"/>
</filter>
</defs>
</svg>
