<svg id="Calque_1" data-name="Calque 1" xmlns="http://www.w3.org/2000/svg" viewBox="0 0 1217.86 1064.76"><defs><style>.cls-1{fill:#dd2d50;}</style></defs><title>Plan de travail 3</title><path class="cls-1" d="M1106.13-55.09c98,76.55,132.06,235,100.1,355.14C1172.1,428.33,1003,471.81,935.55,586.16c-51.88,88-12.48,211.25-71.63,294.55-59.87,84.3-155.65,146.4-256.79,167.91-99.37,21.14-195.71-52.42-297.29-50-107.6,2.5-206.24,79.2-312.83,64.26-112.76-15.81-217.52-74.7-302.48-150.51-88.84-79.27-183.4-175.66-195.77-294.08-12.63-121,97.83-219.43,129.88-336.78C-343.84,180.73-395.3,52.71-325.53-25-252.12-106.72-111.47-68.92-13-117.58,69.3-158.24,116.51-250.74,201.5-285.39c90.69-37,196.42-71.25,288.23-37.13,93.16,34.61,107.4,178.45,198.57,218C818.39-48.08,994.39-142.38,1106.13-55.09Z"/></svg>