<svg width="141" height="153" viewBox="0 0 141 153" fill="none" xmlns="http://www.w3.org/2000/svg">
<path d="M44.8967 23.4846C48.8811 30.8055 60.2712 45.6222 61.9538 53.9967C62.4267 56.3503 44.3114 55.4114 33.9569 41.8039C25.5529 30.7597 24.4238 7.80358 25.2077 0C77.7021 6.96732 72.4526 53.9967 68.953 47.0294C66.2476 41.6432 52.4309 29.317 45.1879 23.254C45.0218 23.115 44.7932 23.2944 44.8967 23.4846Z" fill="#0FA44D"/>
<path d="M95.7697 28.3941C92.659 34.4437 84.1506 46.395 82.883 53.1791C82.5232 55.1048 96.3066 54.3366 104.185 43.2032C110.579 34.167 111.438 15.3847 110.842 9C70.9006 14.7005 74.8947 53.1791 77.5575 47.4786C79.5958 43.1148 89.9236 33.1836 95.4764 28.1732C95.6378 28.0275 95.8691 28.2007 95.7697 28.3941Z" fill="#0FA44D"/>
<circle cx="47.5" cy="105.5" r="41" stroke="#DD2D50" stroke-width="13"/>
<circle cx="93.5" cy="105.5" r="41" stroke="#DD2D50" stroke-width="13"/>
</svg>
