<svg width="78" height="24" viewBox="0 0 78 24" fill="none" xmlns="http://www.w3.org/2000/svg">
<path fill-rule="evenodd" clip-rule="evenodd" d="M11.3063 16.2439C11.5755 16.2824 11.8254 16.2324 12.0561 16.094C12.6636 15.7172 13.2558 15.2404 13.8325 14.6636C14.8784 13.6178 15.4051 12.6219 15.4128 11.676C15.4128 10.7224 14.8745 9.70735 13.7979 8.63074L9.40469 4.23752C12.2623 3.25085 15.5591 3.89824 17.8405 6.1797C21.0259 9.36504 21.0259 14.5295 17.8405 17.7148C14.6552 20.9002 9.49075 20.9002 6.30541 17.7148C3.12007 14.5295 3.12007 9.36504 6.30541 6.1797C6.59459 5.89052 6.90008 5.6276 7.21892 5.39092C7.23811 5.41412 7.25866 5.43668 7.28056 5.45858L11.8139 9.99189C12.5521 10.7301 12.9597 11.3761 13.0366 11.9298C13.1135 12.4681 12.902 12.9872 12.4022 13.487C11.91 13.9792 11.3255 14.3945 10.6488 14.7328C10.4566 14.8328 10.3374 14.9904 10.2912 15.2058C10.2528 15.4134 10.3105 15.5941 10.4643 15.7479L10.5911 15.8748C10.7911 16.0747 11.0295 16.1978 11.3063 16.2439Z" fill="url(#paint0_linear_1_1663)"/>
<path fill-rule="evenodd" clip-rule="evenodd" d="M31.359 15.5559C34.2954 15.5559 35.7635 14.0878 35.7635 11.1514V5.05247C38.0453 6.49845 39.56 9.04589 39.56 11.9471C39.56 16.4518 35.9081 20.1037 31.4034 20.1037C26.8986 20.1037 23.2468 16.4518 23.2468 11.9471C23.2468 9.08369 24.7223 6.56491 26.9544 5.10956V11.1514C26.9544 14.0878 28.4226 15.5559 31.359 15.5559ZM29.2117 4.08834C29.2512 4.18995 29.2709 4.29852 29.2709 4.41406V11.2819C29.2709 12.1302 29.4395 12.7446 29.7766 13.1253C30.1246 13.495 30.663 13.6799 31.3916 13.6799C32.1203 13.6799 32.6532 13.495 32.9903 13.1253C33.3383 12.7446 33.5123 12.1302 33.5123 11.2819V4.41406C33.5123 4.29629 33.5328 4.18576 33.5738 4.08246C32.8827 3.89217 32.1549 3.79053 31.4034 3.79053C30.6441 3.79053 29.9091 3.89426 29.2117 4.08834Z" fill="url(#paint1_linear_1_1663)"/>
<path fill-rule="evenodd" clip-rule="evenodd" d="M52.702 14.5303C54.7783 12.454 54.7783 10.3777 52.702 8.30138L48.3896 3.98898C51.0255 3.39795 53.8979 4.1282 55.9494 6.1797C59.1348 9.36504 59.1348 14.5295 55.9494 17.7148C52.7641 20.9002 47.5996 20.9002 44.4143 17.7148C42.3896 15.6901 41.6519 12.8658 42.2011 10.2584L46.473 14.5303C48.5493 16.6067 50.6256 16.6067 52.702 14.5303ZM43.0751 7.94001C43.1748 7.98397 43.2654 8.04675 43.347 8.12835L48.2033 12.9846C48.8031 13.5845 49.3568 13.8998 49.8643 13.9305C50.3719 13.9459 50.8832 13.696 51.3985 13.1807C51.9137 12.6655 52.1598 12.158 52.1367 11.6581C52.1137 11.1429 51.8022 10.5853 51.2024 9.98551L46.3461 5.12922C46.2629 5.04602 46.1993 4.95346 46.1552 4.85154C45.5321 5.20563 44.9457 5.64834 44.4143 6.1797C43.8774 6.71657 43.431 7.30966 43.0751 7.94001Z" fill="url(#paint2_linear_1_1663)"/>
<path fill-rule="evenodd" clip-rule="evenodd" d="M72.4809 4.34766C73.4085 5.07045 73.8722 6.25701 73.8722 7.90735V14.6447C73.8722 14.8948 73.7798 15.1123 73.5949 15.2972C73.41 15.4821 73.1925 15.5745 72.9424 15.5745H72.5509C72.3007 15.5745 72.0832 15.4821 71.8983 15.2972C71.7135 15.1123 71.621 14.8948 71.621 14.6447V7.77685C71.621 6.92856 71.447 6.3141 71.099 5.93346C70.7619 5.5637 70.229 5.37881 69.5003 5.37881C68.7717 5.37881 68.2333 5.5637 67.8853 5.93346C67.5482 6.3141 67.3796 6.92856 67.3796 7.77685V14.6447C67.3796 14.8948 67.2872 15.1123 67.1023 15.2972C66.9174 15.4821 66.6999 15.5745 66.4498 15.5745H65.993C65.7428 15.5745 65.5253 15.4821 65.3405 15.2972C65.1556 15.1123 65.0631 14.8948 65.0631 14.6447V7.90735C65.0631 6.31059 65.4973 5.14798 66.3656 4.41951C63.4229 5.65096 61.3555 8.55757 61.3555 11.9471C61.3555 16.4518 65.0073 20.1036 69.512 20.1036C74.0168 20.1036 77.6686 16.4518 77.6686 11.9471C77.6686 8.48979 75.5176 5.5349 72.4809 4.34766Z" fill="url(#paint3_linear_1_1663)"/>
<g filter="url(#filter0_d_1_1663)">
<circle cx="12.964" cy="14.2031" r="0.866342" transform="rotate(-45 12.964 14.2031)" fill="white"/>
</g>
<defs>
<filter id="filter0_d_1_1663" x="11.3348" y="12.5738" width="3.25844" height="3.25868" filterUnits="userSpaceOnUse" color-interpolation-filters="sRGB">
<feFlood flood-opacity="0" result="BackgroundImageFix"/>
<feColorMatrix in="SourceAlpha" type="matrix" values="0 0 0 0 0 0 0 0 0 0 0 0 0 0 0 0 0 0 127 0" result="hardAlpha"/>
<feOffset/>
<feGaussianBlur stdDeviation="0.381444"/>
<feComposite in2="hardAlpha" operator="out"/>
<feColorMatrix type="matrix" values="0 0 0 0 1 0 0 0 0 1 0 0 0 0 1 0 0 0 0.56 0"/>
<feBlend mode="normal" in2="BackgroundImageFix" result="effect1_dropShadow_1_1663"/>
<feBlend mode="normal" in="SourceGraphic" in2="effect1_dropShadow_1_1663" result="shape"/>
</filter>
<linearGradient id="paint0_linear_1_1663" x1="3.98904" y1="11.7308" x2="20.3829" y2="10.4467" gradientUnits="userSpaceOnUse">
<stop stop-color="#E84575"/>
<stop offset="0.484375" stop-color="#E94057"/>
<stop offset="1" stop-color="#F27121"/>
</linearGradient>
<linearGradient id="paint1_linear_1_1663" x1="26.0206" y1="5.77999" x2="37.8406" y2="16.5766" gradientUnits="userSpaceOnUse">
<stop stop-color="#69DBCB"/>
<stop offset="0.401042" stop-color="#58C899"/>
<stop offset="0.921875" stop-color="#5E5EEA"/>
</linearGradient>
<linearGradient id="paint2_linear_1_1663" x1="42.1382" y1="11.932" x2="57.9492" y2="10.3845" gradientUnits="userSpaceOnUse">
<stop offset="0.307292" stop-color="#4FC55F"/>
<stop offset="1" stop-color="#DEA43E"/>
</linearGradient>
<linearGradient id="paint3_linear_1_1663" x1="64.2667" y1="5.86188" x2="75.8903" y2="16.4158" gradientUnits="userSpaceOnUse">
<stop offset="0.359375" stop-color="#EDCF48"/>
<stop offset="1" stop-color="#833AB4"/>
</linearGradient>
</defs>
</svg>
