<svg width="156" height="45" viewBox="0 0 156 45" fill="none" xmlns="http://www.w3.org/2000/svg">
<path d="M10.6419 28.657C13.0707 30.3507 14.6686 31.8048 15.4355 33.0192C16.2025 34.2016 16.586 35.5279 16.586 36.9979C16.586 39.2669 15.7871 41.1524 14.1892 42.6544C12.5913 44.1564 10.578 44.9074 8.1492 44.9074C5.75238 44.9074 3.78698 44.0925 2.25301 42.4627C0.751005 40.8009 0 38.6917 0 36.1351C0.511322 35.9114 1.11852 35.7516 1.82159 35.6557C2.52465 35.5279 3.17979 35.4799 3.78698 35.5119C3.72307 37.4933 4.0746 39.0592 4.84158 40.2097C5.64052 41.3282 6.74306 41.8874 8.1492 41.8874C9.23576 41.8874 10.0826 41.5519 10.6898 40.8808C11.329 40.1777 11.6486 39.2349 11.6486 38.0525C11.6486 37.0618 11.345 36.1351 10.7378 35.2722C10.1625 34.4093 8.86825 33.2748 6.85492 31.8687C4.42613 30.143 2.82825 28.657 2.06127 27.4106C1.29428 26.1643 0.910793 24.7741 0.910793 23.2401C0.910793 21.099 1.59788 19.3733 2.97206 18.063C4.3782 16.7527 6.24772 16.0976 8.58063 16.0976C10.8177 16.0976 12.5913 16.7048 13.9016 17.9192C15.2118 19.1016 16.0907 20.9392 16.5381 23.4319C15.9948 23.7515 15.3876 23.9911 14.7165 24.1509C14.0773 24.3107 13.3104 24.4386 12.4155 24.5344C12.1279 22.7128 11.6805 21.4026 11.0733 20.6036C10.4661 19.7727 9.63523 19.3573 8.58063 19.3573C7.74973 19.3573 7.07862 19.6449 6.5673 20.2201C6.05597 20.7634 5.80031 21.5144 5.80031 22.4732C5.80031 23.4638 6.10391 24.3906 6.71111 25.2535C7.3183 26.1163 8.62856 27.2508 10.6419 28.657Z" fill="#DD2D50"/>
<path d="M51.3074 24.8221C51.3074 27.7302 51.0198 31.0538 50.4445 34.7928C49.9012 38.4999 49.2621 41.6478 48.5271 44.2363C47.5683 44.2044 46.6735 44.1245 45.8426 43.9966C45.0117 43.8688 44.2607 43.709 43.5896 43.5173C44.4844 39.938 45.1555 36.5825 45.6029 33.4506C46.0503 30.2868 46.274 27.3946 46.274 24.7741C46.274 23.0164 46.0663 21.7541 45.6509 20.9871C45.2354 20.1882 44.5643 19.7887 43.6375 19.7887C42.7427 19.7887 41.8479 20.2841 40.9531 21.2748C40.0583 22.2654 39.2593 23.6556 38.5563 25.4452C38.5882 25.637 38.6042 25.8607 38.6042 26.1163C38.6042 26.372 38.6042 26.7715 38.6042 27.3147C38.6042 29.6157 38.4125 32.2362 38.029 35.1763C37.6455 38.1164 37.2141 40.5292 36.7347 42.4147C36.1275 42.4147 35.4244 42.3668 34.6255 42.2709C33.8585 42.1431 32.9956 41.9673 32.0369 41.7436C32.6441 38.452 33.0755 35.6876 33.3312 33.4506C33.5869 31.2136 33.7147 29.2162 33.7147 27.4586C33.7147 25.7009 33.507 24.4386 33.0915 23.6716C32.6761 22.8726 32.005 22.4732 31.0782 22.4732C30.0875 22.4732 29.1128 22.9525 28.1541 23.9113C27.1953 24.838 26.3964 26.1323 25.7572 27.7941C25.7253 30.1909 25.6933 31.9166 25.6614 32.9712C25.6614 33.9939 25.6614 34.9047 25.6614 35.7036C25.6614 37.1737 25.6773 38.6437 25.7093 40.1138C25.7732 41.5519 25.8371 42.6384 25.901 43.3735C25.3897 43.5332 24.7186 43.6771 23.8877 43.8049C23.0888 43.9327 22.3378 43.9966 21.6347 43.9966C21.3151 39.97 21.0275 35.416 20.7718 30.3347C20.5481 25.2215 20.4363 21.0031 20.4363 17.6795C20.8837 17.4558 21.427 17.28 22.0661 17.1522C22.7372 17.0244 23.4084 16.9605 24.0795 16.9605C24.5269 16.9605 24.9263 16.9764 25.2779 17.0084C25.6294 17.0404 25.9969 17.1043 26.3804 17.2002C26.2845 17.9352 26.2046 18.798 26.1407 19.7887C26.0768 20.7475 26.0129 21.818 25.949 23.0005C26.9077 21.4665 27.9943 20.316 29.2087 19.549C30.4231 18.7501 31.7173 18.3506 33.0915 18.3506C34.242 18.3506 35.2007 18.6223 35.9677 19.1655C36.7347 19.6769 37.3259 20.4598 37.7414 21.5144C38.8279 19.565 40.0263 18.1109 41.3366 17.1522C42.6788 16.1615 44.1329 15.6662 45.6988 15.6662C47.6163 15.6662 49.0224 16.4172 49.9172 17.9192C50.844 19.3893 51.3074 21.6902 51.3074 24.8221Z" fill="#DD2D50"/>
<path d="M55.3876 31.4373C55.3876 27.2189 56.4262 23.7674 58.5035 21.083C60.5807 18.3986 63.2492 17.0563 66.5089 17.0563C69.1294 17.0563 71.1907 17.9831 72.6927 19.8367C74.1947 21.6582 74.9457 24.1669 74.9457 27.3627C74.9457 32.0285 73.955 35.8794 71.9736 38.9154C70.0242 41.9194 67.4037 43.4214 64.112 43.4214C61.4276 43.4214 59.3024 42.3189 57.7365 40.1138C56.1706 37.9087 55.3876 35.0165 55.3876 31.4373ZM69.7685 29.5198C69.7685 26.4199 69.401 24.135 68.666 22.6649C67.9629 21.1629 66.8764 20.4119 65.4063 20.4119C64.0321 20.4119 62.8497 21.4186 61.859 23.4319C60.8683 25.4133 60.373 27.858 60.373 30.7662C60.373 33.3867 60.7884 35.6078 61.6193 37.4293C62.4822 39.219 63.6327 40.1138 65.0708 40.1138C66.3491 40.1138 67.4516 39.0752 68.3784 36.9979C69.3051 34.8887 69.7685 32.396 69.7685 29.5198Z" fill="#DD2D50"/>
<path d="M62.5812 31.4373C62.5812 27.2189 63.6198 23.7674 65.697 21.083C67.7743 18.3986 70.4428 17.0563 73.7024 17.0563C76.323 17.0563 78.3842 17.9831 79.8863 19.8367C81.3883 21.6582 82.1393 24.1669 82.1393 27.3627C82.1393 32.0285 81.1486 35.8794 79.1672 38.9154C77.2178 41.9194 74.5973 43.4214 71.3056 43.4214C68.6212 43.4214 66.496 42.3189 64.9301 40.1138C63.3641 37.9087 62.5812 35.0165 62.5812 31.4373ZM76.9621 29.5198C76.9621 26.4199 76.5946 24.135 75.8596 22.6649C75.1565 21.1629 74.07 20.4119 72.5999 20.4119C71.2257 20.4119 70.0433 21.4186 69.0526 23.4319C68.0619 25.4133 67.5666 27.858 67.5666 30.7662C67.5666 33.3867 67.982 35.6078 68.8129 37.4293C69.6758 39.219 70.8263 40.1138 72.2644 40.1138C73.5427 40.1138 74.6452 39.0752 75.572 36.9979C76.4987 34.8887 76.9621 32.396 76.9621 29.5198Z" fill="#DD2D50"/>
<path d="M96.7112 32.7316C97.3503 32.7955 97.9735 32.9553 98.5807 33.2109C99.2199 33.4346 99.7951 33.7063 100.306 34.0259C100.243 36.6464 99.6673 38.7236 98.5807 40.2576C97.4942 41.7596 95.9762 42.5106 94.0268 42.5106C91.7578 42.5106 90.0161 41.3601 88.8017 39.0592C87.5873 36.7263 86.9801 33.3707 86.9801 28.9925C86.9801 27.5225 87.0121 26.1004 87.076 24.7262C87.1718 23.32 87.2997 21.9618 87.4595 20.6516C86.6925 20.5237 86.0214 20.4119 85.4461 20.316C84.9028 20.2201 84.4075 20.1243 83.9601 20.0284C83.9601 19.4851 84.024 18.9418 84.1518 18.3986C84.2797 17.8233 84.4395 17.344 84.6312 16.9605C85.1106 17.0883 85.6219 17.2002 86.1652 17.296C86.7085 17.3919 87.2837 17.4718 87.8909 17.5357C88.0507 16.4811 88.2424 15.4265 88.4661 14.3719C88.6898 13.3173 88.9295 12.2787 89.1852 11.256C90.3037 11.3199 91.3104 11.4158 92.2052 11.5436C93.1 11.6715 93.867 11.8472 94.5061 12.0709C94.2505 12.8379 93.9948 13.7168 93.7391 14.7075C93.5154 15.6981 93.2917 16.7687 93.068 17.9192C94.3144 17.9512 95.5447 17.9512 96.7591 17.9192C98.0055 17.8553 99.2039 17.7594 100.354 17.6316C100.354 18.079 100.306 18.5743 100.211 19.1176C100.115 19.6289 99.9709 20.1403 99.7791 20.6516C98.6287 20.7794 97.4302 20.8753 96.1839 20.9392C94.9695 21.0031 93.7711 21.0191 92.5887 20.9871C92.365 22.4572 92.1892 23.9272 92.0614 25.3973C91.9655 26.8673 91.9176 28.2895 91.9176 29.6636C91.9176 32.8274 92.1253 35.2243 92.5407 36.8541C92.9562 38.452 93.5793 39.2509 94.4102 39.2509C95.1453 39.2509 95.7045 38.7236 96.088 37.669C96.4715 36.5825 96.6792 34.9366 96.7112 32.7316Z" fill="#DD2D50"/>
<path d="M123.3 27.123C123.3 29.7116 122.901 32.7635 122.102 36.2789C121.335 39.7942 120.52 42.5266 119.657 44.476C118.922 44.444 118.187 44.3162 117.452 44.0925C116.749 43.9008 116.03 43.6451 115.295 43.3255C116.222 40.705 116.941 37.9726 117.452 35.1284C117.995 32.2842 118.267 29.6317 118.267 27.1709C118.267 24.9339 118.043 23.384 117.596 22.5211C117.18 21.6582 116.429 21.2268 115.343 21.2268C114.288 21.2268 113.202 21.818 112.083 23.0005C110.997 24.1829 110.086 25.7808 109.351 27.7941C109.319 28.1137 109.303 28.4492 109.303 28.8008C109.303 29.1204 109.303 29.6317 109.303 30.3347C109.303 31.8048 109.367 33.6424 109.495 35.8474C109.622 38.0525 109.75 39.8262 109.878 41.1684C109.431 41.2962 108.759 41.4081 107.865 41.5039C106.97 41.5998 106.123 41.6478 105.324 41.6478C105.068 38.3881 104.877 35.1603 104.749 31.9646C104.621 28.7369 104.557 25.7009 104.557 22.8567C104.557 20.2361 104.637 17.4239 104.797 14.4198C104.957 11.3839 105.148 9.09889 105.372 7.56492C105.819 7.30926 106.379 7.11751 107.05 6.98968C107.721 6.82989 108.408 6.75 109.111 6.75C109.335 6.75 109.638 6.78196 110.022 6.84587C110.405 6.90979 110.885 7.00566 111.46 7.13349C111.012 9.27465 110.613 11.6555 110.261 14.276C109.942 16.8966 109.702 19.6289 109.542 22.4732C110.469 20.9072 111.54 19.6928 112.754 18.83C114.001 17.9671 115.295 17.5357 116.637 17.5357C118.97 17.5357 120.664 18.3027 121.718 19.8367C122.773 21.3706 123.3 23.7994 123.3 27.123Z" fill="#DD2D50"/>
<path d="M133.562 7.2773C134.105 7.2773 134.601 7.32524 135.048 7.42111C135.495 7.51698 135.911 7.67677 136.294 7.90048C135.975 8.66746 135.639 9.57825 135.288 10.6329C134.968 11.6555 134.728 12.5982 134.569 13.4611C134.089 13.557 133.498 13.6209 132.795 13.6529C132.092 13.6848 131.261 13.6848 130.302 13.6529C130.206 13.2694 130.143 12.9018 130.111 12.5503C130.079 12.1988 130.063 11.8472 130.063 11.4957C130.063 10.8566 130.111 10.2014 130.206 9.53032C130.334 8.82725 130.494 8.25201 130.686 7.8046C131.101 7.5809 131.533 7.43709 131.98 7.37317C132.427 7.2773 132.955 7.24534 133.562 7.2773ZM129.152 18.9738C129.631 18.7181 130.174 18.5264 130.782 18.3986C131.389 18.2388 132.012 18.1589 132.651 18.1589C132.971 18.1589 133.29 18.1749 133.61 18.2068C133.93 18.2388 134.233 18.2867 134.521 18.3506C133.85 21.4186 133.354 25.2215 133.035 29.7595C132.715 34.2655 132.635 38.6437 132.795 42.8941C132.443 43.0539 132.012 43.1817 131.501 43.2776C130.989 43.3735 130.478 43.4214 129.967 43.4214C129.711 43.4214 129.471 43.4054 129.248 43.3735C129.056 43.3735 128.88 43.3415 128.72 43.2776C128.209 39.187 127.985 34.9846 128.049 30.6703C128.145 26.356 128.513 22.4572 129.152 18.9738Z" fill="#DD2D50"/>
<path d="M142.626 27.5544C143.425 27.842 144.288 28.0658 145.214 28.2255C146.141 28.3534 147.068 28.4173 147.995 28.4173C148.282 28.4173 148.634 28.4013 149.049 28.3693C149.465 28.3054 149.768 28.2575 149.96 28.2255C150.184 27.3627 150.343 26.5637 150.439 25.8287C150.567 25.0617 150.631 24.3587 150.631 23.7195C150.631 22.4732 150.423 21.5943 150.008 21.083C149.624 20.5397 149.001 20.2681 148.138 20.2681C146.988 20.2681 145.917 20.9392 144.927 22.2814C143.936 23.6236 143.169 25.3813 142.626 27.5544ZM152.165 34.5532C152.836 34.681 153.523 34.9366 154.226 35.3201C154.929 35.6717 155.521 36.1031 156 36.6144C155.425 38.4041 154.146 40.0179 152.165 41.456C150.216 42.8621 148.106 43.5652 145.837 43.5652C143.057 43.5652 140.884 42.5745 139.318 40.5931C137.752 38.6118 136.969 35.9273 136.969 32.5398C136.969 28.5771 138.104 25.0298 140.373 21.8979C142.674 18.7341 145.39 17.1522 148.522 17.1522C150.599 17.1522 152.245 17.7754 153.459 19.0217C154.674 20.2681 155.281 21.9299 155.281 24.0071C155.281 25.0937 155.169 26.2122 154.945 27.3627C154.754 28.5132 154.482 29.5358 154.13 30.4306C153.395 30.7182 152.501 30.9419 151.446 31.1017C150.423 31.2296 149.177 31.2935 147.707 31.2935C146.812 31.2935 145.885 31.2296 144.927 31.1017C143.968 30.9419 143.025 30.7182 142.098 30.4306C142.066 31.0698 142.035 31.5172 142.003 31.7728C142.003 32.0285 142.003 32.2682 142.003 32.4919C142.003 34.8568 142.402 36.7582 143.201 38.1963C144 39.6344 145.07 40.3535 146.413 40.3535C147.499 40.3535 148.618 39.7782 149.768 38.6278C150.919 37.4453 151.718 36.0871 152.165 34.5532Z" fill="#DD2D50"/>
<path d="M61.9365 7.32493C63.2762 9.55465 66.0249 13.2871 66.4634 15.4795C66.5983 16.1542 61.4288 15.885 58.474 11.9841C56.0757 8.81801 55.7535 2.23709 55.9772 0C70.9574 1.99735 69.4594 15.4795 68.4607 13.4821C67.7493 12.0594 64.3462 8.94777 62.1988 7.10774C62.0342 6.96677 61.8249 7.13922 61.9365 7.32493Z" fill="#0FA44D"/>
<path d="M76.2662 8.70401C75.2164 10.5552 73.2444 13.4935 72.9213 15.2421C72.8186 15.7976 76.7515 15.576 78.9995 12.3639C80.8241 9.75693 81.0692 4.33814 80.899 2.49609C69.5023 4.14073 70.642 15.2421 71.4017 13.5974C71.9252 12.4643 74.3645 10.0302 76.0022 8.50087C76.1612 8.35237 76.3735 8.51475 76.2662 8.70401Z" fill="#0FA44D"/>
</svg>
